<svg width="55" height="70" id="Layer_1" data-name="Layer 1" xmlns="http://www.w3.org/2000/svg" xmlns:xlink="http://www.w3.org/1999/xlink" viewBox="0 0 75.88 71"><defs><style>.cls-1{fill:url(#linear-gradient);}.cls-2{fill:#fff;}.cls-3{fill-rule:evenodd;fill:url(#linear-gradient-2);}</style><linearGradient id="linear-gradient" x1="38.79" y1="69.08" x2="38.79" y2="1.57" gradientUnits="userSpaceOnUse"><stop offset="0" stop-color="#7bc2e8"/><stop offset="1" stop-color="#1f6ab4"/></linearGradient><linearGradient id="linear-gradient-2" x1="37.67" y1="69.43" x2="37.67" y2="48.74" gradientUnits="userSpaceOnUse"><stop offset="0" stop-color="#89a289"/><stop offset="1" stop-color="#006233"/></linearGradient></defs><g id="Sifal_school" data-name="Sifal school"><path class="cls-1" d="M72.54,35.32A33.75,33.75,0,1,1,38.8,1.57,33.75,33.75,0,0,1,72.54,35.32Z"/><path class="cls-2" d="M24.34,52.39a20.35,20.35,0,0,1,1.74-11.08s.87-.35-.23-1.72c0,0-5.73-8.64,2.24-11.91,0,0,3.83-1.05,11.75-.65-8.21-.61,6.67,1.51,6.51-3.92a72.36,72.36,0,0,0-5.7-5.51s-3.31-2.53-1.73-11.91c0,0,.2,5.55,2.33,4.88,0,0,2.5-.71.35.95,0,0-1.66.14-.19,3.16A3.49,3.49,0,0,0,44.08,17l1-3.5.54,4.06s3.85,4.84,3-1.62l1.16,1.76,1.3-1.1L52.37,19s1.32.13.86-3.33c0,0,0-2.59-2.33-3.2,0,0-1-1.47-.65-2l1.45,1.11s1.72-1.45-1.06-4.52c0,0,3.09-.33,3.93,5.44l-.25,2.24,2.16-1.65L53.41,20.5l.74,3.87a2.67,2.67,0,0,1-.46,1.74s-.65.24-1.13,5.27c0,0-.85,5.15-4.88,7a5.6,5.6,0,0,0,1.46,2.94,4.59,4.59,0,0,1-.2,3.69,6,6,0,0,0-.3,3.94c.22.65,1,1.23,1.6,1.77,0,0,.94,2.48-2.39,1.62,0,0-2-.35-1.65-2.08l-.49-3.14s-.49-.54-2.08,1.58c0,0-1.38,2.85-2.7.35,0,0-.36-.55.31-1.48,1.15-1.61,3.64-3.51,3.49-5.28-.16-1.56-2.4-3.09-3.47-3.1A11,11,0,0,0,38,40c-1.32.33-3.23.34-4.33.7a8.28,8.28,0,0,0-1.76,2c-1.16,1.41-1.71,2.64-1.46,3.67a3.41,3.41,0,0,0,.38,1.89,39,39,0,0,0,3.83,5.65s.36,2.17-2,.27l-5.5-7.52-.43,6S25,54.74,24.34,52.39Z"/><path class="cls-3" d="M16.58,51.15c5.41,4.61,12.73,1.87,14.15.6,1.1.46,3.45,4.77,7.6,5.3,9.61,1.23,13.07-7.85,14.92-8.31,1.65,0,7.67,12.75,12.66,6.68,0,0-8.36,13.65-27.91,14C18,69.06,9.44,52,9.44,52S16.64,53.19,16.58,51.15Z"/></g></svg>