<svg width="196" height="64" id="Layer_1" data-name="Layer 1" xmlns="http://www.w3.org/2000/svg" xmlns:xlink="http://www.w3.org/1999/xlink" viewBox="0 0 228.88 71"><defs><style>.cls-1{fill:url(#linear-gradient);}.cls-2{fill:#fff;}.cls-3{fill-rule:evenodd;fill:url(#linear-gradient-2);}</style><linearGradient id="linear-gradient" x1="38.79" y1="69.08" x2="38.79" y2="1.57" gradientUnits="userSpaceOnUse"><stop offset="0" stop-color="#7bc2e8"/><stop offset="1" stop-color="#1f6ab4"/></linearGradient><linearGradient id="linear-gradient-2" x1="37.67" y1="69.43" x2="37.67" y2="48.74" gradientUnits="userSpaceOnUse"><stop offset="0" stop-color="#89a289"/><stop offset="1" stop-color="#006233"/></linearGradient></defs><g id="Sifal_school" data-name="Sifal school"><path class="cls-1" d="M72.54,35.32A33.75,33.75,0,1,1,38.8,1.57,33.75,33.75,0,0,1,72.54,35.32Z"/><path class="cls-2" d="M24.34,52.39a20.35,20.35,0,0,1,1.74-11.08s.87-.35-.23-1.72c0,0-5.73-8.64,2.24-11.91,0,0,3.83-1.05,11.75-.65-8.21-.61,6.67,1.51,6.51-3.92a72.36,72.36,0,0,0-5.7-5.51s-3.31-2.53-1.73-11.91c0,0,.2,5.55,2.33,4.88,0,0,2.5-.71.35.95,0,0-1.66.14-.19,3.16A3.49,3.49,0,0,0,44.08,17l1-3.5.54,4.06s3.85,4.84,3-1.62l1.16,1.76,1.3-1.1L52.37,19s1.32.13.86-3.33c0,0,0-2.59-2.33-3.2,0,0-1-1.47-.65-2l1.45,1.11s1.72-1.45-1.06-4.52c0,0,3.09-.33,3.93,5.44l-.25,2.24,2.16-1.65L53.41,20.5l.74,3.87a2.67,2.67,0,0,1-.46,1.74s-.65.24-1.13,5.27c0,0-.85,5.15-4.88,7a5.6,5.6,0,0,0,1.46,2.94,4.59,4.59,0,0,1-.2,3.69,6,6,0,0,0-.3,3.94c.22.65,1,1.23,1.6,1.77,0,0,.94,2.48-2.39,1.62,0,0-2-.35-1.65-2.08l-.49-3.14s-.49-.54-2.08,1.58c0,0-1.38,2.85-2.7.35,0,0-.36-.55.31-1.48,1.15-1.61,3.64-3.51,3.49-5.28-.16-1.56-2.4-3.09-3.47-3.1A11,11,0,0,0,38,40c-1.32.33-3.23.34-4.33.7a8.28,8.28,0,0,0-1.76,2c-1.16,1.41-1.71,2.64-1.46,3.67a3.41,3.41,0,0,0,.38,1.89,39,39,0,0,0,3.83,5.65s.36,2.17-2,.27l-5.5-7.52-.43,6S25,54.74,24.34,52.39Z"/><path class="cls-3" d="M16.58,51.15c5.41,4.61,12.73,1.87,14.15.6,1.1.46,3.45,4.77,7.6,5.3,9.61,1.23,13.07-7.85,14.92-8.31,1.65,0,7.67,12.75,12.66,6.68,0,0-8.36,13.65-27.91,14C18,69.06,9.44,52,9.44,52S16.64,53.19,16.58,51.15Z"/></g><path class="cls-2" d="M171.67,29.79s.09-.06.11-.1a1.43,1.43,0,0,0,.09-.27c.56-2.07,1.11-4.14,1.67-6.21l1.35-5.09c.07-.27.15-.54.24-.8a2.3,2.3,0,0,1,.37-.69,1.6,1.6,0,0,1,1.2-.63,2,2,0,0,1,2,1.43,1.62,1.62,0,0,1,.07.44,3.7,3.7,0,0,1-.08.94c-.1.38-.19.77-.3,1.14q-1.86,6-3.71,12c-.21.67-.45,1.34-.68,2a3.2,3.2,0,0,1-.71,1.19,1.94,1.94,0,0,1-1.44.65h-.56a1.94,1.94,0,0,1-1.26-.55A3.2,3.2,0,0,1,169.3,34c-.13-.37-.25-.74-.35-1.12-.34-1.26-.67-2.52-1-3.79l-1.68-6.32a.56.56,0,0,0-.14-.3l-.05,0s0,0,0,0-.11.28-.15.42l-1.47,5.69c-.33,1.3-.66,2.6-1,3.9a12.33,12.33,0,0,1-.56,1.65,5.66,5.66,0,0,1-.34.7,1.87,1.87,0,0,1-1.51.93,5.15,5.15,0,0,1-.68,0A2,2,0,0,1,159,35.2a3,3,0,0,1-.51-.67,6.14,6.14,0,0,1-.52-1.24c-.33-1-.67-2.09-1-3.15q-1.57-5.07-3.13-10.16a10.83,10.83,0,0,1-.41-1.68,2,2,0,0,1,2.81-2.12,1.08,1.08,0,0,1,.53.48,5.69,5.69,0,0,1,.26.56,11.79,11.79,0,0,1,.54,1.65q1.3,4.92,2.6,9.85l.23.86a.44.44,0,0,0,.08.15.23.23,0,0,0,.1,0s0,0,0,0,.11-.31.15-.48q1.23-4.76,2.47-9.53c.17-.67.37-1.33.57-2a2.78,2.78,0,0,1,.66-1.09,2.12,2.12,0,0,1,1.4-.64,2.49,2.49,0,0,1,1.05.12,1.7,1.7,0,0,1,.68.38,2.88,2.88,0,0,1,.81,1.19c.1.3.21.6.29.91.26.95.52,1.9.77,2.86.68,2.62,1.35,5.24,2,7.86a1.11,1.11,0,0,0,.19.47Z"/><path class="cls-2" d="M98.87,22.27V32.68c0,.28,0,.56,0,.84a3.12,3.12,0,0,1-.32,1.24,1.87,1.87,0,0,1-1.12,1,2.43,2.43,0,0,1-.66.07,1.71,1.71,0,0,1-1.29-.58,2.23,2.23,0,0,1-.58-1.13,4.21,4.21,0,0,1-.12-1,1.34,1.34,0,0,0,0-.28.24.24,0,0,0-.06-.08s-.1,0-.15,0-.18.19-.26.29a12.16,12.16,0,0,1-1.18,1.2,6.44,6.44,0,0,1-1.86,1.13,5.73,5.73,0,0,1-2,.42h-.67a5.68,5.68,0,0,1-2.53-.64,6.83,6.83,0,0,1-2.4-2.07,9.64,9.64,0,0,1-1.5-3,14.89,14.89,0,0,1-.47-2.3,18,18,0,0,1-.06-3.52,11.32,11.32,0,0,1,.88-3.8,8,8,0,0,1,1.84-2.64,6.13,6.13,0,0,1,3.05-1.57,8.37,8.37,0,0,1,2.06-.12A6.17,6.17,0,0,1,91,16.3a5.29,5.29,0,0,1,1.53.69,8.68,8.68,0,0,1,1.78,1.53l.33.3s.12,0,.13-.06a.88.88,0,0,0,0-.16c0-.17,0-.34,0-.51V11.88a7.2,7.2,0,0,1,.09-1.23,3.29,3.29,0,0,1,.34-1,1.85,1.85,0,0,1,2-.89,2.62,2.62,0,0,1,.48.13,1.76,1.76,0,0,1,.95,1A3.21,3.21,0,0,1,98.86,11c0,.28,0,.56,0,.84V22.27ZM86,26a8.36,8.36,0,0,0,.13,1.67,6.69,6.69,0,0,0,.69,2.18,4.9,4.9,0,0,0,.76,1.1,3.71,3.71,0,0,0,5.59-.18,5.39,5.39,0,0,0,1-1.76,8.7,8.7,0,0,0,.37-1.74,11,11,0,0,0-.16-3.62,6.15,6.15,0,0,0-1-2.35A4.29,4.29,0,0,0,92,20.07a3.34,3.34,0,0,0-1.81-.5,3.29,3.29,0,0,0-1.9.57,4,4,0,0,0-1,1,6,6,0,0,0-.94,2A9.83,9.83,0,0,0,86,26Z"/><path class="cls-2" d="M208.66,22.38V12.3c0-.3,0-.6,0-.9a4.11,4.11,0,0,1,.23-1.2,2.65,2.65,0,0,1,.38-.75,1.87,1.87,0,0,1,1-.66,2.07,2.07,0,0,1,1.21.06,1.88,1.88,0,0,1,1.05.89,2.79,2.79,0,0,1,.32.89A5.73,5.73,0,0,1,213,11.8v11c0,.19,0,.38,0,.56a.11.11,0,0,0,.07.08.12.12,0,0,0,.1,0l.34-.36,3.82-4.41c.4-.47.8-.94,1.21-1.39q.4-.43.84-.84a1.73,1.73,0,0,1,1.28-.45,1.86,1.86,0,0,1,1.76,1.4,2,2,0,0,1-.14,1.42,5.1,5.1,0,0,1-.5.8,11.12,11.12,0,0,1-1,1.1l-2.09,2.11-.3.33a.18.18,0,0,0,0,.21l.27.49,4,6.94c.29.5.57,1,.85,1.52a2.22,2.22,0,0,1,.24.62,2.91,2.91,0,0,1-.17,1.65,1.89,1.89,0,0,1-1.23,1.14,3,3,0,0,1-.89.05,1.62,1.62,0,0,1-.38-.09,1.19,1.19,0,0,1-.55-.38,6.26,6.26,0,0,1-.45-.57c-.34-.49-.64-1-.93-1.53l-3.33-6c-.44-.8-.35-.8-1-.14l-1.47,1.53-.3.33a.43.43,0,0,0-.11.26v.45c0,1.06,0,2.12,0,3.19a5.36,5.36,0,0,1-.1,1.06,2.49,2.49,0,0,1-.89,1.51,1.71,1.71,0,0,1-1.18.43,2.2,2.2,0,0,1-.67-.08,1.86,1.86,0,0,1-1.14-1,3.42,3.42,0,0,1-.33-1.29c0-.28,0-.56,0-.84V22.38Z"/><path class="cls-2" d="M196,26.12c0,.91,0,1.83,0,2.74a10.78,10.78,0,0,0,.41,3.1c.12.45.23.91.33,1.36a2.74,2.74,0,0,1,.07.5,1.5,1.5,0,0,1-.26,1,2.32,2.32,0,0,1-.91.82,1.76,1.76,0,0,1-1.19.17,1.27,1.27,0,0,1-.56-.27,3.49,3.49,0,0,1-.49-.45,9.36,9.36,0,0,1-.62-.79c-.19-.26-.35-.53-.52-.8s-.25-.41-.61-.12a14.93,14.93,0,0,1-2,1.38,7.71,7.71,0,0,1-2.23.89,7,7,0,0,1-1.38.18c-.36,0-.71,0-1.07,0a5.34,5.34,0,0,1-3.52-1.52,5.07,5.07,0,0,1-1.17-1.76,5.74,5.74,0,0,1-.23-3.68,4.92,4.92,0,0,1,2.36-3.08,5.88,5.88,0,0,1,1.71-.68l2.4-.55c1.57-.36,3.13-.74,4.66-1.23.14-.05.28-.09.42-.15a.24.24,0,0,0,.12-.18V22.9a6.54,6.54,0,0,0-.31-1.87,4.37,4.37,0,0,0-.29-.67,1.73,1.73,0,0,0-.77-.72,3.2,3.2,0,0,0-1.29-.33c-.5,0-1,0-1.51,0a4.21,4.21,0,0,0-1.21.25,3.27,3.27,0,0,0-1.13.71,5.26,5.26,0,0,0-.83,1.05c-.21.36-.42.71-.64,1.06-.39.64-.53.62-1.13.67a1.76,1.76,0,0,1-1.94-1.65,3.79,3.79,0,0,1,.29-1.7,4.87,4.87,0,0,1,1.53-2,7.34,7.34,0,0,1,2.75-1.34,10.05,10.05,0,0,1,2.44-.35c.67,0,1.35,0,2,0a9.51,9.51,0,0,1,2.79.53,7.54,7.54,0,0,1,.82.36,4.33,4.33,0,0,1,1.95,2.1,6.83,6.83,0,0,1,.5,1.65,13.47,13.47,0,0,1,.24,2.45c0,1,0,2,0,3Zm-4.23,1.2v-1a.88.88,0,0,0,0-.16.17.17,0,0,0-.2-.15l-.16.05-.85.27c-.85.26-1.73.44-2.6.66-.56.14-1.12.28-1.67.44a3.14,3.14,0,0,0-1.38.82,1.9,1.9,0,0,0-.54.9,2.87,2.87,0,0,0-.11.77,2.68,2.68,0,0,0,2.63,2.72,4.79,4.79,0,0,0,3.14-1,3.73,3.73,0,0,0,1.42-2c.07-.21.1-.44.15-.65.13-.55.11-1.11.19-1.72Z"/><path class="cls-2" d="M130.45,27.05h-4.21l-.56,0a.22.22,0,0,0-.18.19.43.43,0,0,0,0,.16,7.27,7.27,0,0,0,.64,2.71,4.79,4.79,0,0,0,1,1.45,3.84,3.84,0,0,0,2,1,4.49,4.49,0,0,0,3.27-.67,8.81,8.81,0,0,0,1.39-1.13l1-1,.27-.28a.9.9,0,0,1,.39-.22,1.87,1.87,0,0,1,1.1,0,1.26,1.26,0,0,1,.86,1,1.87,1.87,0,0,1,0,.88,4.55,4.55,0,0,1-.86,1.8,6.68,6.68,0,0,1-2,1.75,8.48,8.48,0,0,1-2.61,1,7.21,7.21,0,0,1-1.39.15h-1.3a8.82,8.82,0,0,1-3-.61A7.57,7.57,0,0,1,122.58,32a9.65,9.65,0,0,1-1.21-3,16.82,16.82,0,0,1-.26-1.71,14.31,14.31,0,0,1-.07-1.85,13.05,13.05,0,0,1,.76-4.11,10.13,10.13,0,0,1,.89-1.81,7.51,7.51,0,0,1,4.3-3.21,8,8,0,0,1,2.27-.35h1A7.6,7.6,0,0,1,137,20.46a9.09,9.09,0,0,1,.79,2.79,5.91,5.91,0,0,1-.07,2c0,.12-.07.25-.11.37a1.66,1.66,0,0,1-.92,1,4,4,0,0,1-.8.27,5.06,5.06,0,0,1-1.17.14h-4.26Zm-.91-2.66H133a4,4,0,0,0,.5,0s.1-.06.11-.11a.55.55,0,0,0,0-.22c0-.31-.06-.63-.12-.94a6.47,6.47,0,0,0-.44-1.5,4.22,4.22,0,0,0-.88-1.29,3.49,3.49,0,0,0-1.59-.89,4.59,4.59,0,0,0-1.28-.11,2.77,2.77,0,0,0-1,.2,3.5,3.5,0,0,0-1.76,1.41,4.89,4.89,0,0,0-.63,1.3,8.56,8.56,0,0,0-.39,1.86c0,.22,0,.31.27.32h3.75Z"/><path class="cls-2" d="M111.29,27.05h-4.21c-.74,0-.73,0-.68.71a6.4,6.4,0,0,0,1,3.1,4,4,0,0,0,2.26,1.65,4.32,4.32,0,0,0,1.72.12,4.85,4.85,0,0,0,2.34-1,11.65,11.65,0,0,0,1.06-.92l1-1a3.57,3.57,0,0,1,.28-.27,1,1,0,0,1,.65-.28,4.34,4.34,0,0,1,.51,0,1.29,1.29,0,0,1,1.19,1.07,2.52,2.52,0,0,1-.09,1.22,4.66,4.66,0,0,1-.87,1.55,6.79,6.79,0,0,1-1.82,1.56,8.52,8.52,0,0,1-2.72,1,7.13,7.13,0,0,1-1.39.16h-1.29a8.85,8.85,0,0,1-2.74-.51,7.51,7.51,0,0,1-3.89-3.06,9.11,9.11,0,0,1-1.3-3.08,12.75,12.75,0,0,1-.35-2.88c0-.36,0-.71,0-1.07a12.31,12.31,0,0,1,.88-4.19,9.57,9.57,0,0,1,.84-1.58,7.42,7.42,0,0,1,4.21-3.07,7.91,7.91,0,0,1,2.26-.36h1a7.59,7.59,0,0,1,6.78,4.48,9.37,9.37,0,0,1,.69,2.18,7.58,7.58,0,0,1,.14,1.84,4.11,4.11,0,0,1-.2,1.1,1.71,1.71,0,0,1-1,1.08,4.83,4.83,0,0,1-1.63.37c-.3,0-.6,0-.9,0Zm-.86-2.66h3.48l.44,0a.19.19,0,0,0,.14-.16c0-.07,0-.15,0-.22a11.29,11.29,0,0,0-.28-1.54,5.19,5.19,0,0,0-.5-1.25,3.67,3.67,0,0,0-4-1.86l-.11,0a3.4,3.4,0,0,0-2,1.22,4.64,4.64,0,0,0-.77,1.35,8.7,8.7,0,0,0-.49,2.12,1,1,0,0,0,0,.17.21.21,0,0,0,.15.15l.5,0Z"/><path class="cls-2" d="M156.53,56v4.43a12.64,12.64,0,0,1-.2,2.22,6.15,6.15,0,0,1-.4,1.28,3.78,3.78,0,0,1-2.09,2,6.14,6.14,0,0,1-1.46.37,11.94,11.94,0,0,1-1.79.1A6.69,6.69,0,0,1,148.5,66a5.25,5.25,0,0,1-1.41-.68,3.19,3.19,0,0,1-1-1,1.86,1.86,0,0,1-.3-1.17,1.15,1.15,0,0,1,.78-1.06,1.13,1.13,0,0,1,.77,0,1.43,1.43,0,0,1,.62.46l.48.62a4.58,4.58,0,0,0,.42.46,1.89,1.89,0,0,0,.92.5,4.2,4.2,0,0,0,1.62.08,5.19,5.19,0,0,0,.76-.17,2,2,0,0,0,1.27-1.26,3.62,3.62,0,0,0,.21-.92c0-.67.07-1.34.09-2a.82.82,0,0,0,0-.27s0-.06-.07-.07a.12.12,0,0,0-.1,0,1.81,1.81,0,0,0-.18.21c-.19.21-.37.42-.57.62a3.39,3.39,0,0,1-1.6.89,4.25,4.25,0,0,1-1.55.11,6.24,6.24,0,0,1-1-.23,4.17,4.17,0,0,1-1.78-1.32,5.52,5.52,0,0,1-.89-1.61,7.6,7.6,0,0,1-.49-2.4c0-.51,0-1,0-1.52A6.93,6.93,0,0,1,146,52a5,5,0,0,1,1.17-1.83A4.18,4.18,0,0,1,149.43,49a4.57,4.57,0,0,1,1.73.06,3.56,3.56,0,0,1,1.72.89c.23.22.43.46.65.69l.23.25s.07,0,.1,0,0,0,0,0,0-.22,0-.33a2.85,2.85,0,0,1,.11-.66,1.25,1.25,0,0,1,1.88-.75.85.85,0,0,1,.33.37,2.38,2.38,0,0,1,.2.64,8.48,8.48,0,0,1,.09,1.23V56Zm-8.28-.77c0,.2,0,.41,0,.61a4.94,4.94,0,0,0,.23,1.32,3.2,3.2,0,0,0,.72,1.25,2.43,2.43,0,0,0,2.93.48,2.84,2.84,0,0,0,1.08-1,4.06,4.06,0,0,0,.58-1.85,8.9,8.9,0,0,0,0-1.46,5.28,5.28,0,0,0-.35-1.46,3.19,3.19,0,0,0-.73-1.12,2.44,2.44,0,0,0-2.44-.6,2.24,2.24,0,0,0-1.22.85,3.42,3.42,0,0,0-.58,1.14,5.67,5.67,0,0,0-.22,1.88Z"/><path class="cls-2" d="M200,22.26V12c0-.33,0-.67,0-1a2.75,2.75,0,0,1,.23-1,1.88,1.88,0,0,1,.57-.82,1.91,1.91,0,0,1,1.62-.45,2,2,0,0,1,1.69,1.51,5,5,0,0,1,.2,1.27c0,.15,0,.3,0,.45V32.54a9.32,9.32,0,0,1-.09,1.29,2.68,2.68,0,0,1-.36,1,2,2,0,0,1-1.11.89,2.53,2.53,0,0,1-.72.08,1.79,1.79,0,0,1-1.49-.77,2.62,2.62,0,0,1-.53-1.39,9.39,9.39,0,0,1,0-1.06V22.26Z"/><path class="cls-2" d="M141,25.93V19.5c0-.34,0-.68,0-1a3.77,3.77,0,0,1,.22-1.1,3.05,3.05,0,0,1,.2-.46A1.79,1.79,0,0,1,143,16a2.21,2.21,0,0,1,.72.08,1.55,1.55,0,0,1,1,.72,2.8,2.8,0,0,1,.32.83,3.8,3.8,0,0,1,.14.82,1.91,1.91,0,0,0,.06.33s0,0,0,0,.09,0,.1,0l.17-.22c.2-.32.39-.64.61-.94a5,5,0,0,1,.77-.89,2.9,2.9,0,0,1,1.33-.67,4.66,4.66,0,0,1,2.43.16,5.47,5.47,0,0,1,1.27.6,3,3,0,0,1,.71.62,2.14,2.14,0,0,1-.28,2.93,1.46,1.46,0,0,1-1.41.3c-.26-.07-.5-.15-.75-.24a5.71,5.71,0,0,0-1.36-.31,2.36,2.36,0,0,0-2.36,1.07,4,4,0,0,0-.46,1,9.77,9.77,0,0,0-.44,1.85,25.93,25.93,0,0,0-.23,3.41c0,1.75,0,3.5,0,5.26a7.68,7.68,0,0,1-.09,1.17,2.77,2.77,0,0,1-.37,1,1.93,1.93,0,0,1-1,.83,2,2,0,0,1-2.4-.82,2.93,2.93,0,0,1-.42-1.32c0-.31,0-.63,0-.95V25.93Z"/><path class="cls-2" d="M92.25,53v7.28a2.07,2.07,0,0,1-.16.65,1.28,1.28,0,0,1-.32.45,1.18,1.18,0,0,1-.88.29,1.12,1.12,0,0,1-.76-.32,1.59,1.59,0,0,1-.43-.9c0-.22,0-.44-.08-.66,0,0-.11-.08-.14,0l-.13.11a2.75,2.75,0,0,1-.22.26c-.21.2-.42.42-.65.61a3.86,3.86,0,0,1-1.85.89,4,4,0,0,1-.78.05A3.79,3.79,0,0,1,83,60.5a5.34,5.34,0,0,1-1.12-1.66,7.65,7.65,0,0,1-.57-1.93,11.33,11.33,0,0,1-.09-2.85,6.93,6.93,0,0,1,.55-2.27,5.07,5.07,0,0,1,1-1.54A4.17,4.17,0,0,1,85.15,49a5.17,5.17,0,0,1,1.84.07,3.51,3.51,0,0,1,1.59.79c.23.19.44.4.65.6l.25.24s.13,0,.14-.05a1,1,0,0,0,0-.17c0-.16,0-.33,0-.5V46.41c0-.3,0-.6,0-.9a1.67,1.67,0,0,1,.23-.68,1.17,1.17,0,0,1,1.3-.55,1.19,1.19,0,0,1,.9.84,2,2,0,0,1,.11.6V53Zm-2.76,2.32A5.89,5.89,0,0,0,89.38,54a4.34,4.34,0,0,0-.7-1.69,2.84,2.84,0,0,0-.67-.67,2.29,2.29,0,0,0-2.93.22,3,3,0,0,0-.65.9,5.72,5.72,0,0,0-.38,1.17A7.48,7.48,0,0,0,84,56.05a4.85,4.85,0,0,0,.43,1.67,3,3,0,0,0,.8,1.07,2.3,2.3,0,0,0,1.83.54,2.44,2.44,0,0,0,1.74-1.11,3.73,3.73,0,0,0,.51-1.11,5.92,5.92,0,0,0,.22-1.78Z"/><path class="cls-2" d="M127.88,53q0,3.3,0,6.61c0,.29,0,.59-.05.89a1.31,1.31,0,0,1-.33.76,1.12,1.12,0,0,1-.83.4,1.22,1.22,0,0,1-1.24-.84,1.81,1.81,0,0,1-.14-.6c0-.13,0-.26,0-.39s0-.06-.05-.09a.13.13,0,0,0-.16,0l-.26.28c-.21.21-.42.43-.65.63a4.06,4.06,0,0,1-1.83.91,4.11,4.11,0,0,1-.78.07,3.86,3.86,0,0,1-3.08-1.34,5.67,5.67,0,0,1-1.24-2.17,10.09,10.09,0,0,1-.36-1.63,10.73,10.73,0,0,1-.08-1.79,8.69,8.69,0,0,1,.33-2.21,5.36,5.36,0,0,1,1.11-2.11,4,4,0,0,1,2.1-1.32,4.11,4.11,0,0,1,1.78-.11l.6.1a3.47,3.47,0,0,1,1.4.69c.24.2.47.42.71.64l.28.27a.11.11,0,0,0,.1,0s.07,0,.07-.07l0-.5V46.33c0-.2,0-.41,0-.61a2.13,2.13,0,0,1,.22-.81,1.21,1.21,0,0,1,2.19.07,1.55,1.55,0,0,1,.13.48c0,.3,0,.6,0,.9V53Zm-2.77,2.31a7.39,7.39,0,0,0-.16-1.54,4.41,4.41,0,0,0-.58-1.38,2.76,2.76,0,0,0-1-.93,2.26,2.26,0,0,0-1.9-.1,2.34,2.34,0,0,0-1,.82,3.89,3.89,0,0,0-.54,1,6.61,6.61,0,0,0-.3,2.65c0,.21,0,.41.08.61a4.73,4.73,0,0,0,.44,1.38,3.16,3.16,0,0,0,.6.81,2.34,2.34,0,0,0,1.61.67,2.4,2.4,0,0,0,1.95-.94A3.89,3.89,0,0,0,125,56.9a8.12,8.12,0,0,0,.16-1.57Z"/><path class="cls-2" d="M184,53V46.42c0-.21,0-.42,0-.62a2.14,2.14,0,0,1,.14-.71,1.31,1.31,0,0,1,2.47.09,2.5,2.5,0,0,1,.14.77c0,.35,0,.71,0,1.06v3.08c0,.17,0,.34,0,.51s0,.06.05.09.11,0,.16,0l.15-.16.35-.36A3.84,3.84,0,0,1,189.61,49a4.22,4.22,0,0,1,1.77.07,3.34,3.34,0,0,1,2,1.46A4.32,4.32,0,0,1,194,52.6c0,.41,0,.82,0,1.23V59.6c0,.24,0,.49,0,.73a1.58,1.58,0,0,1-.19.64,1.23,1.23,0,0,1-.52.56.81.81,0,0,1-.43.14h-.44a1,1,0,0,1-.8-.46,1.46,1.46,0,0,1-.27-.67,7.45,7.45,0,0,1-.09-1.06c0-1.6,0-3.21,0-4.82,0-.35,0-.71,0-1.06a3.64,3.64,0,0,0-.22-1.09,1.94,1.94,0,0,0-.15-.36,1.46,1.46,0,0,0-1.14-.81,2.49,2.49,0,0,0-1.27.12,2.2,2.2,0,0,0-.87.6,2.88,2.88,0,0,0-.77,1.58,12.66,12.66,0,0,0-.11,1.73c0,1.46,0,2.92,0,4.37a3.38,3.38,0,0,1-.11.95,1.57,1.57,0,0,1-.25.5,1.11,1.11,0,0,1-.9.48h-.34a1.08,1.08,0,0,1-.93-.61,2.13,2.13,0,0,1-.22-.81c0-.22,0-.45,0-.67V53Z"/><path class="cls-2" d="M94,52.94V46.27a3,3,0,0,1,.1-1c0-.13.08-.25.14-.37a1.31,1.31,0,0,1,2.38.24,1.94,1.94,0,0,1,.13.71c0,.19,0,.38,0,.56v3.81c0,.13,0,.26,0,.39a.08.08,0,0,0,.07.07.11.11,0,0,0,.1,0l.2-.2.43-.45a3.85,3.85,0,0,1,2-1,4.06,4.06,0,0,1,2,.12,3.22,3.22,0,0,1,1.78,1.38,4,4,0,0,1,.67,2c0,.47.06.94.06,1.4v5.66a6.54,6.54,0,0,1-.06.89,1.38,1.38,0,0,1-.44.89,1.05,1.05,0,0,1-.75.32h-.34a1,1,0,0,1-.84-.48,1.44,1.44,0,0,1-.27-.72c0-.32,0-.64,0-.95,0-1.55,0-3.1,0-4.65,0-.47,0-.94-.06-1.4a3.81,3.81,0,0,0-.28-1.14,1.49,1.49,0,0,0-1.3-1,2.33,2.33,0,0,0-2.33,1,3.05,3.05,0,0,0-.52,1.41,16.08,16.08,0,0,0-.1,1.84v4.15a2.54,2.54,0,0,1-.12.94,2.17,2.17,0,0,1-.15.35,1.16,1.16,0,0,1-1,.61h-.28a1.08,1.08,0,0,1-1-.65,2.15,2.15,0,0,1-.22-.86c0-.22,0-.45,0-.67V52.94Z"/><path class="cls-2" d="M115.59,55.33c0,.6,0,1.19,0,1.79a7.87,7.87,0,0,0,.29,2.16c.08.32.15.65.23,1a.94.94,0,0,1,0,.44,1.31,1.31,0,0,1-1.45,1,.86.86,0,0,1-.21-.07,1.45,1.45,0,0,1-.44-.34,6,6,0,0,1-.58-.75l-.27-.43a.17.17,0,0,0-.24,0l-.41.31a8,8,0,0,1-1.27.81,4.66,4.66,0,0,1-2.1.52h-.62a3.37,3.37,0,0,1-3.19-2.73,3.69,3.69,0,0,1,0-1.78,3.22,3.22,0,0,1,1.71-2,4.42,4.42,0,0,1,1-.36l2.4-.56c.65-.15,1.3-.32,1.94-.53l.27-.09a.26.26,0,0,0,.18-.25A3.54,3.54,0,0,0,112.6,52a1.34,1.34,0,0,0-.94-.81,3.9,3.9,0,0,0-1.56-.09l-.27,0a2.17,2.17,0,0,0-1.38.78,7.49,7.49,0,0,0-.45.65c-.14.22-.27.44-.42.66a.65.65,0,0,1-.26.2,1.12,1.12,0,0,1-1.57-1,2.52,2.52,0,0,1,.19-1.15A3.06,3.06,0,0,1,107,50a5.25,5.25,0,0,1,2.15-.9,10.14,10.14,0,0,1,2.52-.09,5.12,5.12,0,0,1,2.15.54,2.69,2.69,0,0,1,1.31,1.41,4.7,4.7,0,0,1,.22.63,7.27,7.27,0,0,1,.23,1.6v2.19Zm-2.7,1v-.56a.93.93,0,0,0,0-.22.13.13,0,0,0-.12-.09.9.9,0,0,0-.16,0c-.62.2-1.25.36-1.89.51-.41.09-.83.21-1.24.32a2.11,2.11,0,0,0-.89.46,1.43,1.43,0,0,0-.52.89,1.86,1.86,0,0,0,0,.78,1.74,1.74,0,0,0,1.47,1.28,3.12,3.12,0,0,0,2.17-.58,2.57,2.57,0,0,0,1-1.54,11.19,11.19,0,0,0,.16-1.28Z"/><path class="cls-2" d="M206.44,55.31a8.2,8.2,0,0,1-.5,2.9,5.79,5.79,0,0,1-1.18,1.89A5.1,5.1,0,0,1,202,61.57a8.84,8.84,0,0,1-2.12.08,5.19,5.19,0,0,1-3.81-2.49,5.89,5.89,0,0,1-.78-2,9.14,9.14,0,0,1-.16-2.61,8.1,8.1,0,0,1,.48-2.18,5.7,5.7,0,0,1,.52-1A5.11,5.11,0,0,1,199.78,49,5.76,5.76,0,0,1,201,49a5.61,5.61,0,0,1,2.18.47,5.07,5.07,0,0,1,2.57,2.47,6.72,6.72,0,0,1,.69,2.52c0,.3,0,.6.05.9Zm-8.52.07a6.91,6.91,0,0,0,.27,1.9,4.18,4.18,0,0,0,.44,1,2.55,2.55,0,0,0,3.89.51,3.15,3.15,0,0,0,.67-1,4.64,4.64,0,0,0,.43-1.62,10,10,0,0,0,0-1.73,4.66,4.66,0,0,0-.45-1.67,3.09,3.09,0,0,0-.57-.82,2.32,2.32,0,0,0-1.64-.74,2.67,2.67,0,0,0-.89.08,2.44,2.44,0,0,0-1.41,1.05,3.76,3.76,0,0,0-.45.95,6.62,6.62,0,0,0-.29,2.08Z"/><path class="cls-2" d="M206.94,55.34a7.91,7.91,0,0,1,.4-2.64,5.64,5.64,0,0,1,1.34-2.24A5.14,5.14,0,0,1,211.54,49a6.59,6.59,0,0,1,1.17-.09,6.13,6.13,0,0,1,1.71.29,5.1,5.1,0,0,1,3,2.43,6.74,6.74,0,0,1,.8,2.6c0,.19,0,.37,0,.56s0,.3,0,.44a8.65,8.65,0,0,1-.32,2.38,5.9,5.9,0,0,1-1.54,2.63,5.09,5.09,0,0,1-2.51,1.29,7.93,7.93,0,0,1-2.23.08,5.21,5.21,0,0,1-4-2.94,6.48,6.48,0,0,1-.68-2.52c0-.28,0-.56,0-.84Zm8.53-.06c0-.21,0-.47-.05-.73a4.48,4.48,0,0,0-.25-1.26,3.42,3.42,0,0,0-.56-1.09,2.39,2.39,0,0,0-2-1,2.91,2.91,0,0,0-.78.08,2.47,2.47,0,0,0-1.27.88,3.66,3.66,0,0,0-.51.93,5.05,5.05,0,0,0-.32,1.58q0,.64,0,1.29a4.81,4.81,0,0,0,.34,1.58,3.32,3.32,0,0,0,.51.92,2.54,2.54,0,0,0,4,0,3.49,3.49,0,0,0,.59-1.13,7.18,7.18,0,0,0,.29-2Z"/><path class="cls-2" d="M134.23,55.27V51c0-.26,0-.52,0-.78a1.4,1.4,0,0,1,.15-.54,1.19,1.19,0,0,1,2-.27,1.76,1.76,0,0,1,.39,1c0,.17,0,.33,0,.5a.12.12,0,0,0,.1,0,.16.16,0,0,0,.09-.05l.29-.34a4.77,4.77,0,0,1,.9-.84,3.78,3.78,0,0,1,1.49-.62,5,5,0,0,1,.95-.09,4.08,4.08,0,0,1,1.67.42,3.2,3.2,0,0,1,1.36,1.29,4.12,4.12,0,0,1,.53,1.52,8.48,8.48,0,0,1,.09,1.23c0,1.18,0,2.35,0,3.53,0,1,0,1.94,0,2.91a3,3,0,0,1-.14.94,1.28,1.28,0,0,1-.68.78,1.7,1.7,0,0,1-.32.1h-.11a1.28,1.28,0,0,1-1.39-1,2.22,2.22,0,0,1-.12-.77V54.5a7.81,7.81,0,0,0-.12-1.45,3.53,3.53,0,0,0-.24-.8,1.42,1.42,0,0,0-1.19-.9,3,3,0,0,0-.67,0,2.16,2.16,0,0,0-1.22.51,2.82,2.82,0,0,0-1,1.7,6,6,0,0,0-.11,1.12c0,.71,0,1.42,0,2.12v2.86a3.79,3.79,0,0,1-.1.95,1.41,1.41,0,0,1-.6.91,1.28,1.28,0,0,1-.69.19,1.2,1.2,0,0,1-1.13-.68,1.65,1.65,0,0,1-.22-.69c0-.26,0-.52,0-.78V55.27Z"/><path class="cls-2" d="M166.7,61.68a7,7,0,0,1-1.51-.13,5.12,5.12,0,0,1-2-.9,3.11,3.11,0,0,1-1.11-1.52,2.43,2.43,0,0,1-.1-1,1.14,1.14,0,0,1,.94-1,.92.92,0,0,1,.87.27,3.81,3.81,0,0,1,.29.41,3,3,0,0,1,.22.39,3.87,3.87,0,0,0,.57.76,2.38,2.38,0,0,0,1.6.72,6.76,6.76,0,0,0,.9,0,2,2,0,0,0,1.16-.5,1.37,1.37,0,0,0-.1-2.1,3.9,3.9,0,0,0-.49-.28,7.58,7.58,0,0,0-1.21-.43,17.94,17.94,0,0,1-1.76-.55c-.35-.14-.69-.28-1-.44a3.66,3.66,0,0,1-1.11-.84,2.66,2.66,0,0,1-.73-1.72,3.36,3.36,0,0,1,.47-2,3.46,3.46,0,0,1,1-1.08,4.54,4.54,0,0,1,1.82-.7,6.66,6.66,0,0,1,1.34-.08,6.86,6.86,0,0,1,2.24.44,3.94,3.94,0,0,1,1.4.91,2.59,2.59,0,0,1,.56.83,1.69,1.69,0,0,1,.09,1,1,1,0,0,1-.68.76,1.21,1.21,0,0,1-.82,0,1.43,1.43,0,0,1-.43-.25,5.43,5.43,0,0,1-.62-.73,3.09,3.09,0,0,0-.6-.65,1.89,1.89,0,0,0-1.09-.42h-.56a1.78,1.78,0,0,0-.71.15,1.82,1.82,0,0,0-.56.35A1.09,1.09,0,0,0,165,53a2.17,2.17,0,0,0,.67.4c.31.12.63.23,1,.33l1.57.44a8.66,8.66,0,0,1,1.46.57,4.42,4.42,0,0,1,1.22.88,2.58,2.58,0,0,1,.65,1.09,4,4,0,0,1,.1.5,4.56,4.56,0,0,1-.15,1.72,3.4,3.4,0,0,1-1.58,2,5.57,5.57,0,0,1-1.63.58,7.46,7.46,0,0,1-1.56.12Z"/><path class="cls-2" d="M172.43,55.55a8.14,8.14,0,0,1,.45-3,5.56,5.56,0,0,1,1-1.76,5,5,0,0,1,3-1.79,8.08,8.08,0,0,1,1.9-.09,5.23,5.23,0,0,1,3.35,1.64,3.93,3.93,0,0,1,.58.82,3.23,3.23,0,0,1,.32,1,1.34,1.34,0,0,1-.68,1.37,1.24,1.24,0,0,1-1,.06.44.44,0,0,1-.18-.13c-.14-.15-.27-.3-.4-.47s-.2-.31-.31-.46a4.57,4.57,0,0,0-.72-.86,2.42,2.42,0,0,0-2-.57,2.46,2.46,0,0,0-1.67,1,3.66,3.66,0,0,0-.6,1.26,6.74,6.74,0,0,0-.18,2.61,6.3,6.3,0,0,0,.27,1.2,3.92,3.92,0,0,0,.45.89,2.48,2.48,0,0,0,1.38,1,1.27,1.27,0,0,0,.28.06,3.72,3.72,0,0,0,1,0,2.24,2.24,0,0,0,1.24-.61,3.94,3.94,0,0,0,.75-1c.08-.15.15-.3.24-.44s.24-.34.37-.5a1.06,1.06,0,0,1,1.58.07,1.6,1.6,0,0,1,.3,1.38,3.63,3.63,0,0,1-.65,1.41,4.8,4.8,0,0,1-2.19,1.6,6,6,0,0,1-2,.37,7.8,7.8,0,0,1-1.45-.09A4.87,4.87,0,0,1,173.23,59a6.21,6.21,0,0,1-.68-2,6.38,6.38,0,0,1-.12-1.46Z"/><path class="cls-2" d="M219.41,52.94V46.5c0-.3,0-.6,0-.9a1.54,1.54,0,0,1,.17-.59,1.22,1.22,0,0,1,1.09-.76,1.26,1.26,0,0,1,1.05.44,1.44,1.44,0,0,1,.34.7,3.84,3.84,0,0,1,.09.83V59.5a4.82,4.82,0,0,1-.08,1,1.48,1.48,0,0,1-.39.79,1.21,1.21,0,0,1-.84.39,1.26,1.26,0,0,1-1.3-.86,1.43,1.43,0,0,1-.13-.54c0-.28,0-.56,0-.84v-6.5Z"/><path class="cls-2" d="M129.66,55.3V50.88a2.49,2.49,0,0,1,.12-.94,2.07,2.07,0,0,1,.21-.45,1.27,1.27,0,0,1,1.92-.2,1.66,1.66,0,0,1,.5,1.09,3.27,3.27,0,0,1,0,.44v8.9a3,3,0,0,1-.1.94,1.63,1.63,0,0,1-.28.54,1.24,1.24,0,0,1-1,.48,1.22,1.22,0,0,1-1.18-.71,2,2,0,0,1-.22-.8c0-.21,0-.41,0-.62V55.3Z"/><path class="cls-2" d="M132.41,45.9a1.35,1.35,0,0,1-.08.6,1.31,1.31,0,0,1-1,.85,1.37,1.37,0,0,1-1.11-.21,1.23,1.23,0,0,1-.5-.66,1.74,1.74,0,0,1,0-1.21,1.26,1.26,0,0,1,.77-.76,1.34,1.34,0,0,1,1.86,1.11,2.62,2.62,0,0,1,0,.28Z"/></svg>